<svg xmlns="http://www.w3.org/2000/svg" xmlns:xlink="http://www.w3.org/1999/xlink" width="24" height="24" version="1.1" viewBox="0 0 24 24"><title>5EC8BE10-9A56-412D-8551-5C5F88BD4572</title><desc>Created with sketchtool.</desc><defs><path id="path-1" d="M11,10 C10.4477153,10 10,10.4477153 10,11 L10,20 C10,20.5522847 10.4477153,21 11,21 L20,21 C20.5522847,21 21,20.5522847 21,20 L21,11 C21,10.4477153 20.5522847,10 20,10 L11,10 Z M11,8 L20,8 C21.6568542,8 23,9.34314575 23,11 L23,20 C23,21.6568542 21.6568542,23 20,23 L11,23 C9.34314575,23 8,21.6568542 8,20 L8,11 C8,9.34314575 9.34314575,8 11,8 Z M5,14 C5.55228475,14 6,14.4477153 6,15 C6,15.5522847 5.55228475,16 5,16 L4,16 C2.34314575,16 1,14.6568542 1,13 L1,4 C1,2.34314575 2.34314575,1 4,1 L13,1 C14.6568542,1 16,2.34314575 16,4 L16,5 C16,5.55228475 15.5522847,6 15,6 C14.4477153,6 14,5.55228475 14,5 L14,4 C14,3.44771525 13.5522847,3 13,3 L4,3 C3.44771525,3 3,3.44771525 3,4 L3,13 C3,13.5522847 3.44771525,14 4,14 L5,14 Z"/></defs><g id="Symbols" fill="none" fill-rule="evenodd" stroke="none" stroke-width="1"><g id="atoms/icons/ui/copy"><mask id="mask-2" fill="#fff"><use xlink:href="#path-1"/></mask><use id="Combined-Shape" fill="#000" fill-rule="nonzero" xlink:href="#path-1"/><g id="fill/neutral/-3" fill="#203040" mask="url(#mask-2)"><rect id="Rectangle-Copy-20" width="24" height="24" x="0" y="0"/></g></g></g></svg>